<svg width="137" height="25" viewBox="0 0 137 25" fill="none" xmlns="http://www.w3.org/2000/svg">
<path d="M101.435 24.9226C101.871 24.9486 102.211 24.9931 102.552 24.9931C109.81 24.9931 117.072 25.0079 124.33 24.9819C125.47 24.9782 126.62 24.8707 127.745 24.6853C131.596 24.0551 134.12 21.8602 135.12 18.0043C135.432 16.8031 135.666 15.5759 135.857 14.345C136.274 11.6681 136.828 8.99499 136.985 6.2996C137.161 3.23346 135.644 1.33519 132.688 0.601099C131.251 0.245175 129.734 0.08575 128.254 0.0746273C121.26 0.0227217 114.265 0.052382 107.267 0.052382H105.56L104.498 7.17087H105.677C110.737 7.17087 116.592 7.17087 121.652 7.17087C123.059 7.17087 124.469 7.13009 125.873 7.21907C127.899 7.35254 128.419 8.04215 128.13 10.0665C127.954 11.2974 127.734 12.5246 127.518 13.7518C126.968 16.8587 126.129 17.6002 123.037 17.6225C119.472 17.6484 115.911 17.6299 112.346 17.6225C111.976 17.6225 111.602 17.5557 111.184 17.5149C111.481 15.7538 111.778 14.1374 112.001 12.5097H103.648C102.882 16.6103 102.175 20.7257 101.435 24.9189" fill="#231F20"/>
<path d="M90.4831 16.1167C90.0581 15.4679 89.7833 15.0786 89.5378 14.6745C86.8009 10.1624 84.0456 5.65772 81.3454 1.12339C80.8837 0.34851 80.3964 0.0148302 79.4768 0.0296604C76.2672 0.0889812 73.5816 0.0519057 70.3684 0.0556132C69.9873 0.0556132 69.6063 0.100104 69.2106 0.126057L64.4219 24.9184H72.7792C73.2408 22.6086 73.7355 19.3868 74.1458 17.0658C74.6111 14.4335 75.0765 11.7974 75.5857 8.89441C75.9045 9.36527 76.0547 9.56918 76.1866 9.78793C79.0371 14.4928 81.873 19.2014 84.7491 23.8914C85.0202 24.3326 85.5149 24.9333 85.9142 24.9444C89.6917 25.026 93.4728 24.9926 97.3309 24.9926C97.4958 24.1436 97.657 23.3687 97.7962 22.5938C99.0419 15.4976 100.431 7.10366 101.64 0H93.3043C92.8976 1.95759 92.4506 5.00148 92.1025 6.9739C91.5823 9.92882 91.0583 12.8837 90.4868 16.1167" fill="#231F20"/>
<path d="M0 24.9226C0.436002 24.9486 0.776744 24.9931 1.11748 24.9931C8.37564 24.9931 15.6375 25.0079 22.8956 24.9819C24.0351 24.9782 25.1855 24.8707 26.3104 24.6853C30.1611 24.0551 32.6855 21.8602 33.6858 18.0043C33.9972 16.8031 34.2317 15.5759 34.4222 14.345C34.8399 11.6681 35.3931 8.99499 35.5507 6.2996C35.7265 3.23346 34.2097 1.33519 31.2529 0.601099C29.8167 0.245175 28.2998 0.08575 26.8196 0.0746273C19.8253 0.0227217 12.8309 0.052382 5.8329 0.052382H4.12553L3.06301 7.17087H4.24278C9.3026 7.17087 15.1575 7.17087 20.2173 7.17087C21.6242 7.17087 23.0385 7.13009 24.4381 7.21907C26.4642 7.35254 26.9845 8.04215 26.6951 10.0665C26.5192 11.2974 26.2994 12.5246 26.0832 13.7518C25.5336 16.8587 24.6946 17.6002 21.6023 17.6225C18.0373 17.6484 14.476 17.6299 10.911 17.6225C10.541 17.6225 10.1673 17.5557 9.7496 17.5149C10.0464 15.7538 10.3431 14.1374 10.5666 12.5097H2.21299C1.44723 16.6177 0.736441 20.7294 0 24.9226Z" fill="#231F20"/>
<path d="M46.6741 10.1215C46.7766 9.47267 46.8975 9.03889 46.9085 8.6014C46.9415 7.326 47.4948 6.94412 48.7918 6.97007C53.5805 7.06276 58.3765 7.02198 63.1652 6.97007L64.704 0.0517877H64.0519C56.4383 0.0517877 48.8211 0.0666179 41.2075 0.0332499C40.2989 0.0295424 39.9069 0.24458 39.7493 1.23079C39.1411 5.05327 38.4193 8.85722 37.7525 12.6686C37.0417 16.732 36.3456 20.7992 35.6348 24.9183H44.0397C44.5233 22.2378 44.9923 19.6276 45.476 16.9323C46.0622 16.9323 46.5385 16.9323 47.0185 16.9323C51.5946 16.9323 56.4383 16.9508 61.0145 16.9026L62.513 10.1586C60.5822 10.0955 58.1164 10.1252 56.1818 10.1215C53.0675 10.1215 49.9532 10.1215 46.6741 10.1215" fill="#231F20"/>
</svg>
